<?xml version="1.0" encoding="utf-8" ?>
<svg baseProfile="tiny" height="512" version="1.2" width="512" xmlns="http://www.w3.org/2000/svg" xmlns:ev="http://www.w3.org/2001/xml-events" xmlns:xlink="http://www.w3.org/1999/xlink"><defs /><path d="M 232,0 L 231,1 L 223,1 L 222,2 L 215,2 L 214,3 L 209,3 L 208,4 L 203,4 L 202,5 L 198,5 L 197,6 L 194,6 L 193,7 L 190,7 L 189,8 L 187,8 L 186,9 L 184,9 L 183,10 L 181,10 L 180,11 L 177,11 L 176,12 L 174,12 L 173,13 L 171,13 L 170,14 L 168,14 L 167,15 L 165,15 L 164,16 L 163,16 L 162,17 L 161,17 L 160,18 L 159,18 L 158,19 L 156,19 L 155,20 L 153,20 L 152,21 L 151,21 L 150,22 L 149,22 L 148,23 L 146,23 L 145,24 L 144,24 L 142,26 L 141,26 L 140,27 L 139,27 L 138,28 L 137,28 L 136,29 L 135,29 L 134,30 L 133,30 L 132,31 L 131,31 L 130,32 L 129,32 L 127,34 L 126,34 L 125,35 L 124,35 L 122,37 L 121,37 L 120,38 L 119,38 L 118,39 L 117,39 L 115,41 L 114,41 L 111,44 L 110,44 L 108,46 L 107,46 L 105,48 L 104,48 L 101,51 L 100,51 L 96,55 L 95,55 L 90,60 L 89,60 L 79,70 L 78,70 L 65,83 L 65,84 L 59,90 L 59,91 L 54,96 L 54,97 L 51,100 L 51,101 L 48,104 L 48,105 L 46,107 L 46,108 L 45,109 L 45,110 L 41,114 L 41,115 L 40,116 L 40,117 L 38,119 L 38,120 L 37,121 L 37,122 L 35,124 L 35,125 L 33,127 L 33,128 L 32,129 L 32,130 L 31,131 L 31,132 L 30,133 L 30,134 L 28,136 L 28,137 L 27,138 L 27,139 L 26,140 L 26,141 L 25,142 L 25,144 L 24,145 L 24,146 L 23,147 L 23,148 L 22,149 L 22,150 L 21,151 L 21,152 L 20,153 L 20,154 L 19,155 L 19,157 L 18,158 L 18,160 L 17,161 L 17,162 L 16,163 L 16,165 L 15,166 L 15,168 L 13,170 L 13,172 L 12,173 L 12,176 L 11,177 L 11,179 L 10,180 L 10,183 L 9,184 L 9,187 L 8,188 L 8,191 L 7,192 L 7,193 L 6,194 L 6,197 L 5,198 L 5,202 L 4,203 L 4,207 L 3,208 L 3,214 L 2,215 L 2,221 L 1,222 L 1,231 L 0,232 L 0,279 L 1,280 L 1,289 L 2,290 L 2,296 L 3,297 L 3,303 L 4,304 L 4,308 L 5,309 L 5,313 L 6,314 L 6,317 L 7,318 L 7,319 L 8,320 L 8,323 L 9,324 L 9,327 L 10,328 L 10,331 L 11,332 L 11,334 L 12,335 L 12,338 L 13,339 L 13,341 L 15,343 L 15,345 L 16,346 L 16,348 L 17,349 L 17,350 L 18,351 L 18,353 L 19,354 L 19,356 L 20,357 L 20,358 L 21,359 L 21,360 L 22,361 L 22,362 L 23,363 L 23,364 L 24,365 L 24,366 L 25,367 L 25,369 L 26,370 L 26,371 L 27,372 L 27,373 L 28,374 L 28,375 L 30,377 L 30,378 L 31,379 L 31,380 L 32,381 L 32,382 L 33,383 L 33,384 L 35,386 L 35,387 L 37,389 L 37,390 L 42,385 L 43,385 L 47,381 L 48,381 L 50,379 L 51,379 L 52,378 L 53,378 L 54,377 L 55,377 L 56,376 L 57,376 L 58,375 L 59,375 L 60,374 L 62,374 L 63,373 L 65,373 L 66,372 L 69,372 L 70,371 L 77,371 L 78,370 L 83,370 L 84,371 L 91,371 L 92,372 L 95,372 L 96,373 L 98,373 L 99,374 L 101,374 L 102,375 L 103,375 L 104,376 L 105,376 L 106,377 L 107,377 L 108,378 L 109,378 L 110,379 L 111,379 L 113,381 L 114,381 L 118,385 L 119,385 L 125,391 L 125,392 L 129,396 L 129,397 L 131,399 L 131,400 L 132,401 L 132,402 L 133,403 L 133,404 L 134,405 L 134,406 L 135,407 L 135,408 L 136,409 L 136,410 L 137,411 L 137,413 L 138,414 L 138,417 L 139,418 L 139,421 L 140,422 L 140,429 L 141,430 L 141,437 L 140,438 L 140,445 L 139,446 L 139,449 L 138,450 L 138,453 L 137,454 L 137,456 L 136,457 L 136,458 L 135,459 L 135,460 L 134,461 L 134,462 L 133,463 L 133,464 L 132,465 L 132,466 L 131,467 L 131,468 L 129,470 L 129,471 L 125,475 L 125,476 L 126,477 L 127,477 L 129,479 L 130,479 L 131,480 L 132,480 L 133,481 L 134,481 L 135,482 L 136,482 L 137,483 L 138,483 L 139,484 L 140,484 L 141,485 L 142,485 L 144,487 L 145,487 L 146,488 L 148,488 L 149,489 L 150,489 L 151,490 L 152,490 L 153,491 L 155,491 L 156,492 L 158,492 L 159,493 L 160,493 L 161,494 L 162,494 L 163,495 L 164,495 L 165,496 L 167,496 L 168,497 L 170,497 L 171,498 L 173,498 L 174,499 L 176,499 L 177,500 L 180,500 L 181,501 L 183,501 L 184,502 L 186,502 L 187,503 L 189,503 L 190,504 L 193,504 L 194,505 L 197,505 L 198,506 L 202,506 L 203,507 L 208,507 L 209,508 L 214,508 L 215,509 L 222,509 L 223,510 L 231,510 L 232,511 L 279,511 L 280,510 L 288,510 L 289,509 L 296,509 L 297,508 L 302,508 L 303,507 L 308,507 L 309,506 L 313,506 L 314,505 L 317,505 L 318,504 L 321,504 L 322,503 L 324,503 L 325,502 L 327,502 L 328,501 L 330,501 L 331,500 L 334,500 L 335,499 L 337,499 L 338,498 L 340,498 L 341,497 L 343,497 L 344,496 L 346,496 L 347,495 L 348,495 L 349,494 L 350,494 L 351,493 L 352,493 L 353,492 L 355,492 L 356,491 L 358,491 L 359,490 L 360,490 L 361,489 L 362,489 L 363,488 L 365,488 L 366,487 L 367,487 L 369,485 L 370,485 L 371,484 L 372,484 L 373,483 L 374,483 L 375,482 L 376,482 L 377,481 L 378,481 L 379,480 L 380,480 L 381,479 L 382,479 L 384,477 L 385,477 L 386,476 L 387,476 L 389,474 L 390,474 L 391,473 L 392,473 L 393,472 L 394,472 L 396,470 L 397,470 L 400,467 L 401,467 L 403,465 L 404,465 L 406,463 L 407,463 L 410,460 L 411,460 L 415,456 L 416,456 L 421,451 L 422,451 L 432,441 L 433,441 L 445,429 L 445,428 L 452,421 L 452,420 L 457,415 L 457,414 L 460,411 L 460,410 L 463,407 L 463,406 L 465,404 L 465,403 L 466,402 L 466,401 L 470,397 L 470,396 L 471,395 L 471,394 L 473,392 L 473,391 L 474,390 L 474,389 L 476,387 L 476,386 L 478,384 L 478,383 L 479,382 L 479,381 L 480,380 L 480,379 L 481,378 L 481,377 L 483,375 L 483,374 L 484,373 L 484,372 L 485,371 L 485,370 L 486,369 L 486,367 L 487,366 L 487,365 L 488,364 L 488,363 L 489,362 L 489,361 L 490,360 L 490,359 L 491,358 L 491,357 L 492,356 L 492,354 L 493,353 L 493,351 L 494,350 L 494,349 L 495,348 L 495,346 L 496,345 L 496,343 L 498,341 L 498,339 L 499,338 L 499,335 L 500,334 L 500,332 L 501,331 L 501,328 L 502,327 L 502,324 L 503,323 L 503,320 L 504,319 L 504,318 L 505,317 L 505,314 L 506,313 L 506,309 L 507,308 L 507,304 L 508,303 L 508,297 L 509,296 L 509,290 L 510,289 L 510,280 L 511,279 L 511,232 L 510,231 L 510,222 L 509,221 L 509,215 L 508,214 L 508,209 L 508,212 L 507,213 L 507,219 L 506,220 L 506,226 L 505,227 L 505,231 L 504,232 L 504,235 L 503,236 L 503,239 L 502,240 L 502,243 L 501,244 L 501,247 L 500,248 L 500,250 L 499,251 L 499,253 L 498,254 L 498,256 L 497,257 L 497,259 L 496,260 L 496,261 L 495,262 L 495,264 L 494,265 L 494,266 L 493,267 L 493,268 L 492,269 L 492,271 L 491,272 L 491,273 L 490,274 L 490,275 L 489,276 L 489,277 L 488,278 L 488,279 L 487,280 L 487,281 L 486,282 L 486,283 L 485,284 L 485,285 L 483,287 L 483,288 L 482,289 L 482,290 L 480,292 L 480,293 L 479,294 L 479,295 L 477,297 L 477,298 L 475,300 L 475,301 L 473,303 L 473,304 L 470,307 L 470,308 L 466,312 L 466,313 L 461,318 L 461,319 L 443,337 L 442,337 L 437,342 L 436,342 L 432,346 L 431,346 L 429,348 L 428,348 L 425,351 L 424,351 L 422,353 L 421,353 L 420,354 L 419,354 L 417,356 L 416,356 L 414,358 L 413,358 L 412,359 L 411,359 L 410,360 L 409,360 L 408,361 L 407,361 L 406,362 L 405,362 L 403,364 L 401,364 L 400,365 L 399,365 L 398,366 L 397,366 L 396,367 L 395,367 L 394,368 L 393,368 L 392,369 L 390,369 L 389,370 L 388,370 L 387,371 L 385,371 L 384,372 L 382,372 L 381,373 L 380,373 L 379,374 L 377,374 L 376,375 L 373,375 L 372,376 L 370,376 L 369,377 L 366,377 L 365,378 L 362,378 L 361,379 L 358,379 L 357,380 L 353,380 L 352,381 L 347,381 L 346,382 L 339,382 L 338,383 L 323,383 L 322,384 L 315,384 L 314,383 L 299,383 L 298,382 L 291,382 L 290,381 L 285,381 L 284,380 L 280,380 L 279,379 L 276,379 L 275,378 L 272,378 L 271,377 L 268,377 L 267,376 L 265,376 L 264,375 L 261,375 L 260,374 L 258,374 L 257,373 L 255,373 L 254,372 L 253,372 L 252,371 L 250,371 L 249,370 L 248,370 L 247,369 L 245,369 L 244,368 L 243,368 L 242,367 L 241,367 L 240,366 L 239,366 L 238,365 L 237,365 L 236,364 L 234,364 L 232,362 L 231,362 L 230,361 L 229,361 L 228,360 L 227,360 L 226,359 L 225,359 L 224,358 L 223,358 L 221,356 L 220,356 L 218,354 L 217,354 L 216,353 L 215,353 L 213,351 L 212,351 L 209,348 L 208,348 L 206,346 L 205,346 L 201,342 L 200,342 L 195,337 L 194,337 L 176,319 L 176,318 L 171,313 L 171,312 L 167,308 L 167,307 L 164,304 L 164,303 L 162,301 L 162,300 L 160,298 L 160,297 L 158,295 L 158,294 L 157,293 L 157,292 L 155,290 L 155,289 L 154,288 L 154,287 L 152,285 L 152,284 L 151,283 L 151,282 L 150,281 L 150,280 L 149,279 L 149,278 L 148,277 L 148,276 L 147,275 L 147,274 L 146,273 L 146,272 L 145,271 L 145,269 L 144,268 L 144,267 L 143,266 L 143,265 L 142,264 L 142,262 L 141,261 L 141,260 L 140,259 L 140,257 L 139,256 L 139,254 L 138,253 L 138,251 L 137,250 L 137,248 L 136,247 L 136,244 L 135,243 L 135,240 L 134,239 L 134,236 L 133,235 L 133,232 L 132,231 L 132,227 L 131,226 L 131,220 L 130,219 L 130,212 L 129,211 L 129,196 L 128,195 L 128,189 L 129,188 L 129,173 L 130,172 L 130,165 L 131,164 L 131,158 L 132,157 L 132,153 L 133,152 L 133,149 L 134,148 L 134,145 L 135,144 L 135,141 L 136,140 L 136,137 L 137,136 L 137,134 L 138,133 L 138,131 L 139,130 L 139,128 L 140,127 L 140,125 L 141,124 L 141,123 L 142,122 L 142,120 L 143,119 L 143,118 L 144,117 L 144,116 L 145,115 L 145,113 L 146,112 L 146,111 L 147,110 L 147,109 L 148,108 L 148,107 L 149,106 L 149,105 L 150,104 L 150,103 L 151,102 L 151,101 L 152,100 L 152,99 L 154,97 L 154,96 L 155,95 L 155,94 L 157,92 L 157,91 L 158,90 L 158,89 L 160,87 L 160,86 L 162,84 L 162,83 L 164,81 L 164,80 L 167,77 L 167,76 L 171,72 L 171,71 L 176,66 L 176,65 L 194,47 L 195,47 L 200,42 L 201,42 L 205,38 L 206,38 L 208,36 L 209,36 L 212,33 L 213,33 L 215,31 L 216,31 L 217,30 L 218,30 L 220,28 L 221,28 L 223,26 L 224,26 L 225,25 L 226,25 L 227,24 L 228,24 L 229,23 L 230,23 L 231,22 L 232,22 L 234,20 L 236,20 L 237,19 L 238,19 L 239,18 L 240,18 L 241,17 L 242,17 L 243,16 L 244,16 L 245,15 L 247,15 L 248,14 L 249,14 L 250,13 L 252,13 L 253,12 L 255,12 L 256,11 L 257,11 L 258,10 L 260,10 L 261,9 L 264,9 L 265,8 L 267,8 L 268,7 L 271,7 L 272,6 L 275,6 L 276,5 L 279,5 L 280,4 L 284,4 L 285,3 L 290,3 L 291,2 L 295,2 L 289,2 L 288,1 L 280,1 L 279,0 Z" fill="white" /></svg>